<?xml version="1.0" encoding="UTF-8"?>
<svg id="Calque_1" xmlns="http://www.w3.org/2000/svg" version="1.1" viewBox="0 0 1000 1000">
  <!-- Generator: Adobe Illustrator 29.6.1, SVG Export Plug-In . SVG Version: 2.1.1 Build 9)  -->
  <defs>
    <style>
      .st0 {
        fill: #c0a6e5;
      }

      .st1 {
        fill: #6e5a8b;
      }

      .st2 {
        fill: #23192d;
      }
    </style>
  </defs>
  <path class="st1" d="M502.17,258.67c5.36,0,10.72,1.42,15.5,4.25l163.41,96.85c9.34,5.54,15.02,15.64,14.9,26.49l-2.17,189.94c-.12,10.86-6.03,20.82-15.5,26.15l-165.58,93.09c-4.63,2.6-9.76,3.9-14.89,3.9s-10.72-1.42-15.5-4.25l-163.41-96.85c-9.34-5.54-15.02-15.64-14.89-26.49l2.17-189.94c.12-10.86,6.03-20.82,15.5-26.15l165.58-93.09c4.63-2.6,9.76-3.9,14.89-3.9M502.17,224.67h0c-11.03,0-21.94,2.86-31.55,8.26l-165.58,93.09c-19.99,11.24-32.57,32.46-32.83,55.4l-2.17,189.94c-.26,22.93,11.83,44.44,31.56,56.13l163.41,96.85c9.93,5.89,21.29,9,32.83,9s21.94-2.86,31.56-8.26l165.58-93.09c19.99-11.24,32.57-32.46,32.83-55.39l2.17-189.94c.26-22.93-11.83-44.44-31.56-56.13l-163.41-96.85c-9.93-5.89-21.29-9-32.83-9h0Z"/>
  <g>
    <path class="st2" d="M467.65,592.42s-86.94,16.65-117.45-79.54c15.07-2.26,38.27,4.63,48.97,29.39,9.85,22.8,52.42,23.52,68.48,50.15M533.27,592.42s86.94,16.65,117.45-79.54c-15.07-2.26-38.27,4.63-48.97,29.39-9.86,22.8-52.42,23.52-68.48,50.15"/>
    <path class="st1" d="M320.08,439.73c32.37,32.36,45.94,56.72,53.95,84.15,53.94,27.74,73.98,56.72,73.98,56.72,31.75-55.49-89.71-144.27-127.94-140.88Z"/>
    <path class="st1" d="M551.98,580.61h0s20.04-28.98,73.98-56.72c8.01-27.43,21.58-51.79,53.95-84.15-38.23-3.39-159.68,85.39-127.94,140.88Z"/>
    <path class="st0" d="M595.36,426.01s-27.39,60.56-40.31,78.42c-6.88,9.5-27.11,23.25-32.92,33.44-10.64,18.66-17.81,84.05-17.81,84.05,46.56-27.12,65.92-56.31,77.11-80.9,5.88-12.91,13.96-24.73,24.27-34.46,38.62-36.49,60.56-100.22,60.84-128.47-17.84,20.8-56.33,28.33-71.18,47.93Z"/>
    <path class="st0" d="M333.16,378.08c.28,28.26,22.21,91.99,60.84,128.47,10.3,9.73,18.39,21.55,24.27,34.46,11.19,24.59,30.55,53.78,77.11,80.9,0,0-7.17-65.39-17.81-84.05-5.81-10.19-26.05-23.93-32.92-33.44-12.92-17.86-40.31-78.42-40.31-78.42-14.85-19.6-53.34-27.13-71.18-47.93Z"/>
    <path class="st2" d="M367.46,418.1c-.31-.23-.71.14-.52.47,5.54,9.42,10.7,36.54,25.62,57.34,4.37,6.09,35.41,40.17,40.03,48.74,8.65,16.06,19.79,34.7,34.31,50.38.14.15.38-.01.3-.2-2.99-6.68-20.16-44.94-26.54-56.11-3.82-6.69-10.86-14.94-14.65-21.09-7.12-11.56-28.76-51.78-28.76-51.78-6.76-10.8-24.71-24.11-29.79-27.75Z"/>
    <path class="st2" d="M602.24,445.86s-21.65,40.23-28.76,51.78c-3.79,6.15-10.82,14.39-14.65,21.09-6.38,11.17-23.56,49.44-26.54,56.11-.08.19.16.35.3.2,14.52-15.69,25.65-34.33,34.31-50.38,4.62-8.57,35.66-42.66,40.03-48.74,14.92-20.79,20.08-47.91,25.62-57.34.2-.33-.2-.69-.52-.47-5.08,3.64-23.03,16.95-29.79,27.75Z"/>
    <path class="st1" d="M518.8,495.66l-18.75,20.48-.09,46.63.02,9.31h.17s3.08-11.39,7.71-30.61c1.61-6.67,5.23-12.67,10.39-17.19,6.84-5.99,15.53-13.72,19.81-17.53,1.75-1.56,3.23-3.39,4.39-5.43,4.23-7.44,15.14-26.82,22.15-41.14-17.86,8.07-33.78,24.58-45.8,35.47Z"/>
    <path class="st1" d="M499.87,516.14l-18.75-20.48c-12.02-10.89-27.94-27.4-45.8-35.47,7,14.32,17.91,33.7,22.15,41.14,1.16,2.04,2.64,3.87,4.39,5.43,4.28,3.82,12.97,11.54,19.81,17.53,5.16,4.52,8.78,10.52,10.39,17.19,4.63,19.22,7.71,30.61,7.71,30.61h.17l.02-9.31-.09-46.63Z"/>
    <polygon class="st1" points="499.94 572.09 499.98 572.09 499.96 562.78 499.94 572.09"/>
    <path class="st0" d="M514.87,478.16l-15.08-31.96-14.71,31.96,6.82,11.23c.83,1.36,1.51,2.81,2.05,4.31l5.84,16.43,5.4-15.77c.61-1.79,1.44-3.49,2.47-5.08l7.21-11.12Z"/>
  </g>
</svg>